<?xml version="1.0" encoding="UTF-8"?>
<svg version="1.1" xmlns="http://www.w3.org/2000/svg" width="100" height="100">
<path d="M0 0 C6.6 0 13.2 0 20 0 C20.495 14.355 20.495 14.355 21 29 C27.97909223 21.298175 27.97909223 21.298175 34.625 13.375 C36.07151783 11.57378049 37.53124699 9.78313492 39 8 C39.47155518 7.30745117 39.94311035 6.61490234 40.42895508 5.90136719 C42.8415711 2.6353899 44.57621912 0.34693395 48.62304688 -0.63916016 C51.59994843 -0.78638625 54.46421987 -0.70118486 57.4375 -0.5 C58.96407227 -0.44585938 58.96407227 -0.44585938 60.52148438 -0.390625 C63.01828272 -0.29684854 65.50712488 -0.16583025 68 0 C68 4.7627252 67.20260658 5.42603612 64.1875 8.9375 C63.36636719 9.90558594 62.54523438 10.87367187 61.69921875 11.87109375 C61.25884277 12.38140137 60.8184668 12.89170898 60.36474609 13.41748047 C58.52393181 15.55203471 56.70622106 17.70575496 54.88720703 19.85888672 C53.96368561 20.95144409 53.03888321 22.04291998 52.11279297 23.13330078 C47.67153148 28.36523545 43.32484014 33.6713698 39 39 C40.25110102 42.41361242 41.66034765 45.17364437 43.8359375 48.08203125 C44.68212646 49.22152222 44.68212646 49.22152222 45.54541016 50.3840332 C46.1491748 51.18542725 46.75293945 51.98682129 47.375 52.8125 C47.99552246 53.64547607 48.61604492 54.47845215 49.25537109 55.33666992 C51.16408111 57.89580023 53.08067541 60.44882346 55 63 C55.58330078 63.77601562 56.16660156 64.55203125 56.76757812 65.3515625 C57.32380859 66.09148437 57.88003906 66.83140625 58.453125 67.59375 C58.9888916 68.30684326 59.5246582 69.01993652 60.07666016 69.75463867 C61.07929902 71.08722192 62.08404849 72.41822083 63.09130859 73.74731445 C64.40663141 75.48941014 65.70680403 77.24143778 67 79 C67.41475586 79.55220215 67.82951172 80.1044043 68.25683594 80.67333984 C69.3984375 82.26171875 69.3984375 82.26171875 71 85 C70.505 86.485 70.505 86.485 70 88 C51.7665866 89.60679484 51.7665866 89.60679484 46.31640625 86.44140625 C44.23179841 83.76252268 42.67410767 80.95626156 41 78 C38.58600134 74.63846386 36.06483267 71.35858169 33.5625 68.0625 C32.32817778 66.41236282 31.09990096 64.75767913 29.87890625 63.09765625 C29.08335327 62.02269897 29.08335327 62.02269897 28.27172852 60.92602539 C27 59 27 59 26 56 C23.57021292 57.62373332 22.46302871 58.51793413 21 61 C20.20991853 65.59344375 20.20916328 70.15970909 20.1875 74.8125 C20.16236328 76.07771484 20.13722656 77.34292969 20.11132812 78.64648438 C20.05250729 81.76398889 20.02337947 84.88202828 20 88 C13.4 88 6.8 88 0 88 C0 58.96 0 29.92 0 0 Z M4 4 C4 30.4 4 56.8 4 84 C7.96 84 11.92 84 16 84 C16.00257812 82.13214844 16.00515625 80.26429687 16.0078125 78.33984375 C16.04534059 75.87237202 16.08448816 73.40492455 16.125 70.9375 C16.12242188 69.70837891 16.11984375 68.47925781 16.1171875 67.21289062 C16.33816964 56.96484375 16.33816964 56.96484375 20.0546875 52.62890625 C23 50 23 50 25.1171875 49.9921875 C29.68796702 51.59010229 31.47965236 55.21867413 34.125 59.125 C34.6926709 59.92728027 35.2603418 60.72956055 35.84521484 61.55615234 C38.6255896 65.49184619 41.31509642 69.46866571 43.90625 73.53125 C48.2357436 80.74120338 48.2357436 80.74120338 55.12890625 84.92578125 C57.92510206 84.93649464 60.30063956 84.70486201 63 84 C60.49158274 79.43717765 57.86671165 75.34362905 54.625 71.25 C50.14603417 65.53360737 45.80347622 59.7245358 41.5 53.875 C40.88850098 53.04516602 40.27700195 52.21533203 39.64697266 51.36035156 C32.99169657 42.30618914 32.99169657 42.30618914 33.0625 39.6953125 C34.31178841 36.10360833 36.49960859 33.65632956 39 30.875 C40.00606628 29.72340521 41.01126159 28.57104899 42.015625 27.41796875 C42.77069336 26.55824463 42.77069336 26.55824463 43.54101562 25.68115234 C45.66845961 23.22975019 47.70878993 20.71085797 49.75 18.1875 C52.99989001 14.18808581 56.33785373 10.29127364 59.78515625 6.4609375 C61.10656253 5.18852557 61.10656253 5.18852557 61 4 C56.75788595 3.13380917 53.22775145 2.97747407 49 4 C45.15018831 7.28180669 42.33157307 11.0653601 39.37646484 15.14794922 C37.15040366 18.14314257 34.6935236 20.931937 32.25 23.75 C28.48014841 28.15830487 24.90499564 32.66767874 21.53515625 37.390625 C20 39 20 39 16 40 C16 28.12 16 16.24 16 4 C12.04 4 8.08 4 4 4 Z " fill="#000000" transform="translate(20,6)"/>
</svg>
